<?xml version="1.0" encoding="UTF-8"?>
<svg id="Layer_2" data-name="Layer 2" xmlns="http://www.w3.org/2000/svg" viewBox="0 0 329.19 149.84">
  <defs>
    <style>
      .cls-1 {
        stroke-width: 9.4px;
      }

      .cls-1, .cls-2 {
        stroke-linecap: round;
        stroke-linejoin: round;
      }

      .cls-1, .cls-2, .cls-3 {
        fill: none;
        stroke: #fff;
      }

      .cls-2 {
        stroke-width: 3.76px;
      }

      .cls-3 {
        stroke-miterlimit: 10;
        stroke-width: .67px;
      }
    </style>
  </defs>
  <g id="Layer_1-2" data-name="Layer 1">
    <g>
      <g>
        <path class="cls-3" d="M83.93,75.53c-1.75-.42-3.52.66-3.94,2.41-.01.06-1.44,5.9-4.29,11.38-2.29,4.4-6,9.52-10.64,8.87-1.04-.15-2.2-.63-2.97-3.14-1.91-6.2.31-19.17,5.82-34.98.63-.18,1.27-.38,1.89-.58,5.34-1.72,10.34-4.09,14.87-7.04,4.4-2.88,8.26-6.24,11.46-10.01,4.44-5.21,7.51-11.12,8.88-17.08,1.45-6.3,1-12.72-1.29-18.55-.91-2.33-2.93-4.07-5.4-4.64-2.52-.59-5.16.09-7.07,1.82-7.72,6.99-17.9,24.43-25.94,44.44-.68,1.69-1.5,3.79-2.37,6.17-7.18,1.68-15.3,2.18-24.18.86,2.74-7.95,5.67-16.98,8.91-27.2,2.28-7.19,3.38-12.76,3.36-17.03-.02-4.57-1.38-7.78-4.05-9.53-3.99-2.62-9.92-1.41-18.12,3.71-5.36,3.35-9.8,7.19-9.99,7.35-1.36,1.18-1.51,3.25-.32,4.61,1.18,1.36,3.25,1.51,4.61.32.04-.04,4.28-3.71,9.22-6.78,6.78-4.22,10.11-4.34,11.02-3.75.68.45,1.09,1.98,1.1,4.09.02,3.53-1.01,8.58-3.05,15.02-3.37,10.62-6.39,19.93-9.21,28.06-3-.2-6.15.66-9.38,2.57-3.15,1.86-6.3,4.69-9.39,8.39-4.2,5.04-8.01,11.48-10.45,17.66-1.91,4.83-3.78,11.53-1.91,16.03,1.07,2.56,3.18,4.1,5.94,4.34,4.11.36,8.09-1.55,11.83-5.66,3.08-3.39,6.16-8.42,9.41-15.37,2.68-5.73,5.38-12.54,8.27-20.58,8.09,1.33,16.18,1.34,23.89.05-3.81,11.72-7.32,26.45-4.62,35.22,1.35,4.4,4.3,7.13,8.31,7.7.56.08,1.15.12,1.76.12,4.52,0,10.42-2.47,15.64-12.55,3.2-6.18,4.73-12.5,4.8-12.77.42-1.75-.66-3.52-2.42-3.94ZM71.38,50.85c7.58-18.86,17.33-35.75,24.27-42.03.29-.27.62-.33.87-.33.14,0,.25.02.32.04.27.06.64.23.81.67,3.65,9.3,1.29,19.88-6.48,29.01-4.47,5.26-11.41,10.47-20.29,13.92.17-.43.34-.85.51-1.28ZM22.37,79.51c-5.54,11.84-10.5,17.66-14.75,17.29-.32-.03-.35-.05-.48-.35-.58-1.39-.41-5.13,1.95-11.12,2.2-5.56,5.62-11.35,9.39-15.88,4.02-4.82,8.01-7.76,11.38-8.47-2.61,7.2-5.07,13.33-7.5,18.52Z"/>
        <path class="cls-3" d="M292.01,15.26c-1.8-.16-3.38,1.17-3.54,2.97-.16,1.85-.66,4.3-2.13,5.46-1.31,1.03-5.01,2.36-15.06-.35-7.29-1.97-15.34-5.32-21.81-8.02l-.04-.02c-1.88-.78-7.59-3.16-14.38-1.85-1.65.32-5.53,1.07-8.83,4.44-2.64,2.69-3.69,5.8-4.11,7.93-.35,1.77.81,3.49,2.58,3.83,1.77.34,3.49-.81,3.83-2.58.24-1.25.85-3.07,2.36-4.6,1.88-1.92,4.18-2.36,5.41-2.6,4.85-.94,9.19.87,10.62,1.46l.04.02c1.93.8,3.99,1.66,6.13,2.53-1.42,4.58-2.91,9.34-4.52,14.44-5.32-.87-8.62-.64-8.84-.62-1.8.14-3.15,1.71-3.01,3.51.14,1.8,1.71,3.15,3.51,3.01.04,0,2.4-.15,6.34.42-1.1,3.44-2.25,7.05-3.48,10.85-.18.56-4.49,13.77-12.16,22.07-1.08,1.17-2.62,2.64-4.96,3.7-.41.19-1.67.71-3.38,1.04.3-.26.58-.5.84-.72l.13-.11c4.28-3.7,7.11-8.63,8.41-14.63.9-4.16.79-7.66.65-9.37-.38-4.55-1.92-8.58-4.33-11.37-3.24-3.74-8.03-4.78-13.13-2.85-4.03,1.52-7.98,4.87-10.84,9.2-3.13,4.73-4.76,10.14-4.72,15.66,0,.77.05,1.55.15,2.32-3.15,2.98-6.77,5.47-10.51,7.25.95-1.1,1.82-2.25,2.58-3.43,2.01-3.14,8.14-14.11,2.69-23.53-.04-.08-.09-.16-.14-.24-.91-1.6-2.81-4.92-6.63-6.18-3.41-1.12-7.43-.28-11.33,2.36-3.62,2.46-6.93,6.29-9.57,11.08-.08.14-1.86,3.42-2.95,7.73-.44,1.74-.7,3.41-.79,5-1.73,1.12-3.16,2.8-4.74,4.67-.65.76-1.32,1.55-2.05,2.36-1.19,1.3-2.59,2.27-3.42,2.64-.15-.47-.33-1.33-.39-2.82-.09-1.88.04-3.97.14-5.49.24-3.94.92-7.08,1.53-9.85,1-4.6,1.86-8.57-1.03-11.82-.6-.67-1.43-1.22-4.06-2.65-1.69-.93-3.14-1.56-4.33-2.07.71-3.94.21-5.14,0-5.63-.4-.95-1.13-1.66-2.06-2-.63-.23-2.28-.58-4,1.03-1.46,1.37-3.3,4.53-2.41,7.63.23.8.59,1.45,1.04,2-.53,1.82-1.24,3.81-2.13,5.74-1.73,3.72-5.32,11.47-13.17,14.27-.72.26-1.71.57-2.87.84.49-1.55.79-2.79.94-3.46.37-1.65,1.13-5.07,1.16-8.61.05-5.15-1.48-8.75-4.53-10.69-4.18-2.67-9.86-1.27-13.23,1.43-4.63,2.68-8.3,6.43-10.6,10.84-1.95,3.72-3.2,8.4-3.36,12.52-.21,5.48,1.39,9.8,4.64,12.49,3.82,3.16,8.54,2.83,9.45,2.74,6.04-.65,10.07-5.39,12.64-10.23.08,0,.16,0,.24-.02,3.71-.26,6.73-1.34,7.72-1.69,10.43-3.72,14.97-13.5,16.9-17.67.83-1.78,1.48-3.54,2-5.11.85.38,1.79.82,2.83,1.39,1.49.82,2.13,1.2,2.4,1.38.52.82.12,2.83-.56,5.97-.62,2.85-1.39,6.39-1.66,10.83-.32,5.15-.8,12.93,4.08,14.99,4.71,1.98,9.95-3.4,10.95-4.49.81-.89,1.55-1.76,2.21-2.53.31-.36.61-.72.9-1.06,1.81,4.06,5.32,6.55,7.69,7.55,4.22,1.8,10.01,1.56,16.32-.69,4.72-1.68,9.39-4.39,13.52-7.8.48,1,1.03,1.97,1.66,2.89,2.63,3.89,6.25,6.66,10.48,8,2.02.64,3.98.88,5.79.88,4.3,0,7.75-1.35,8.98-1.91,3.46-1.56,5.7-3.73,7.08-5.23,8.48-9.19,13.08-22.96,13.57-24.5,1.31-4.05,2.53-7.88,3.69-11.52,2.04.55,4.27,1.27,6.64,2.21.39.16.8.23,1.2.23,1.3,0,2.53-.78,3.04-2.07.66-1.68-.16-3.58-1.84-4.24-2.51-.99-4.88-1.76-7.06-2.37,1.5-4.74,2.89-9.18,4.22-13.47,3.45,1.28,6.97,2.47,10.38,3.39,4.39,1.18,8.06,1.78,11.21,1.83.13,0,.27,0,.4,0,3.87,0,6.96-.89,9.2-2.66,2.66-2.09,4.2-5.46,4.6-10.02.16-1.8-1.17-3.38-2.97-3.54ZM102.87,80.04c-.11.01-2.72.27-4.59-1.27-3.5-2.9-2.63-11.26.35-16.95.03-.06.06-.11.09-.17.51,4.26,2.4,8.18,5.3,10.82,1.45,1.33,3.16,2.32,5.08,2.97-1.68,2.46-3.76,4.33-6.23,4.59ZM113.66,64.4c-.32,1.43-.84,3.24-1.56,5.11-1.34-.31-2.61-.89-3.68-1.87-2.1-1.92-3.37-5.2-3.31-8.55.05-2.56.87-4.72,2.27-5.93.02-.02.05-.04.07-.06,1.65-1.37,4.4-1.9,5.7-1.07.86.55,2.63,2.85.51,12.37ZM186.27,70.71c-1.79,2.8-4.4,5.43-7.16,7.21-2.76,1.78-4.38,1.91-4.81,1.84-.3-.14-1.09-.55-1.94-1.28-.56-.49-.97-.96-1.19-1.23-.08-.1-.15-.2-.23-.3-3.25-4.83.04-13.24,1.58-16.08,2.11-3.83,4.78-6.96,7.51-8.82,2.15-1.46,4.2-2.03,5.61-1.56,1.43.47,2.41,2.19,3,3.22.06.1.11.19.16.28,3.69,6.38-1.47,15.06-2.54,16.73ZM219.27,76.52l-.13.11c-1.82,1.57-4.52,3.91-6.83,3.58-.12-.07-.26-.16-.39-.26-.2-.16-.4-.32-.59-.48-1.24-1.11-2.71-3.02-3.72-4.98-.98-2.1-1.49-4.35-1.5-6.43-.03-4.16,1.27-8.43,3.64-12.02,2.12-3.2,4.92-5.64,7.7-6.69,2.5-.94,4.49-.6,5.89,1.02,1.49,1.72,2.5,4.5,2.76,7.63.16,1.97.6,12.11-6.82,18.52Z"/>
      </g>
      <g>
        <line class="cls-1" x1="85.93" y1="83.11" x2="121.76" y2="83.11"/>
        <line class="cls-1" x1="136.49" y1="106.63" x2="153.51" y2="106.63"/>
        <polyline class="cls-1" points="8.33 145.14 8.27 83.07 25.72 139.43 43.12 83.01 43.12 145.14"/>
        <polyline class="cls-1" points="58.24 145.05 69.48 83.01 80.54 145.14"/>
        <line class="cls-1" x1="63.73" y1="125.43" x2="74.36" y2="125.43"/>
        <polyline class="cls-1" points="226.4 145.05 237.65 83.01 248.7 145.14"/>
        <line class="cls-1" x1="103.88" y1="145.11" x2="103.87" y2="83.11"/>
        <path class="cls-1" d="M158.77,83.01h-15.78c-3.56,0-6.45,2.88-6.46,6.45l-.12,55.65h22.06"/>
        <path class="cls-1" d="M173.89,145.1v-62c10.91-.11,16.87,3.78,19.88,10.04,5.44,11.32-.97,24.78-13.11,28-2.03.54-4.28.92-6.77,1.12"/>
        <line class="cls-1" x1="185.21" y1="119.9" x2="194.18" y2="145.1"/>
        <line class="cls-1" x1="211.11" y1="83.11" x2="211.11" y2="145.14"/>
        <polyline class="cls-1" points="263.75 83.11 263.75 145.14 287.9 145.14"/>
        <path class="cls-1" d="M324.26,95.21c-.27-5.89-4.38-10.75-9.73-11.84-6.26-1.26-11.6,3.17-13.57,7.45-3.54,7.68,3.16,16.3,4.02,17.41,4.81,6.18,8.96,4.75,14.6,11.96,2.16,2.77,4.98,6.48,4.91,11.66-.01,1.12-.24,8.34-6.17,11.74-4.7,2.7-9.54,1.04-10.01.87-4.59-1.66-7.82-6.13-8.23-11.38"/>
      </g>
      <g>
        <polyline class="cls-2" points="256.67 47.04 264.41 72.08 270.86 47.12"/>
        <polyline class="cls-2" points="279.83 47.04 272.09 72.08 265.64 47.12"/>
        <line class="cls-2" x1="287.4" y1="47.04" x2="287.4" y2="72.15"/>
        <line class="cls-2" x1="302.29" y1="72.15" x2="302.29" y2="47.13"/>
        <line class="cls-2" x1="316.96" y1="72.15" x2="316.96" y2="47.13"/>
        <line class="cls-2" x1="326.09" y1="72.19" x2="326.09" y2="47.16"/>
        <line class="cls-2" x1="295.09" y1="47.13" x2="309.35" y2="47.13"/>
        <line class="cls-2" x1="326.09" y1="56.59" x2="316.96" y2="56.59"/>
      </g>
      <line class="cls-1" x1="232.24" y1="125.43" x2="242.86" y2="125.43"/>
    </g>
  </g>
</svg>